<svg width="50" height="50" viewBox="0 0 50 50" fill="none" xmlns="http://www.w3.org/2000/svg">
<rect width="50" height="50" rx="25" fill="#242424"/>
<path d="M9.56 35C9.12 35 8.75 34.85 8.45 34.55C8.15 34.25 8 33.88 8 33.44V13.13C8 12.67 8.15 12.3 8.45 12.02C8.75 11.72 9.12 11.57 9.56 11.57H16.73C18.09 11.57 19.28 11.84 20.3 12.38C21.34 12.9 22.15 13.63 22.73 14.57C23.33 15.51 23.63 16.59 23.63 17.81C23.63 18.79 23.36 19.68 22.82 20.48C22.3 21.26 21.58 21.88 20.66 22.34C21.98 22.66 23.04 23.29 23.84 24.23C24.64 25.17 25.04 26.4 25.04 27.92C25.04 29.3 24.71 30.52 24.05 31.58C23.41 32.64 22.51 33.48 21.35 34.1C20.19 34.7 18.86 35 17.36 35H9.56ZM11.12 21.2H16.73C17.87 21.2 18.8 20.92 19.52 20.36C20.26 19.8 20.63 18.95 20.63 17.81C20.63 16.67 20.26 15.83 19.52 15.29C18.8 14.73 17.87 14.45 16.73 14.45H11.12V21.2ZM11.12 32.12H17.36C18.72 32.12 19.84 31.77 20.72 31.07C21.6 30.35 22.04 29.3 22.04 27.92C22.04 26.64 21.6 25.68 20.72 25.04C19.84 24.4 18.72 24.08 17.36 24.08H11.12V32.12Z" fill="#F7F7F7"/>
<path d="M19.3897 35C18.9497 35 18.5797 34.85 18.2797 34.55C17.9797 34.25 17.8297 33.88 17.8297 33.44V13.13C17.8297 12.67 17.9797 12.3 18.2797 12.02C18.5797 11.72 18.9497 11.57 19.3897 11.57C19.9897 11.57 20.4497 11.85 20.7697 12.41L29.6797 30.26L38.3497 12.41C38.6697 11.85 39.1297 11.57 39.7297 11.57C40.1697 11.57 40.5397 11.72 40.8397 12.02C41.1397 12.3 41.2897 12.67 41.2897 13.13V33.44C41.2897 33.88 41.1297 34.25 40.8097 34.55C40.5097 34.85 40.1497 35 39.7297 35C39.2897 35 38.9197 34.85 38.6197 34.55C38.3197 34.25 38.1697 33.88 38.1697 33.44V18.53L30.9097 33.32C30.5697 33.84 30.1197 34.1 29.5597 34.1C28.8997 34.1 28.4197 33.79 28.1197 33.17L20.9497 18.8V33.44C20.9497 33.88 20.7997 34.25 20.4997 34.55C20.1997 34.85 19.8297 35 19.3897 35Z" fill="#06C8AB"/>
</svg>
