<svg width="285" height="50" viewBox="0 0 285 50" fill="none" xmlns="http://www.w3.org/2000/svg">
<path d="M52.8906 38V13.875H56.5156C58.1302 13.875 59.4167 14 60.375 14.25C61.3438 14.5 62.1615 14.9219 62.8281 15.5156C63.5052 16.1302 64.0417 16.8958 64.4375 17.8125C64.8438 18.7396 65.0469 19.6771 65.0469 20.625C65.0469 22.3542 64.3854 23.8177 63.0625 25.0156C64.3438 25.4531 65.3542 26.2188 66.0938 27.3125C66.8438 28.3958 67.2188 29.6562 67.2188 31.0938C67.2188 32.9792 66.5521 34.5729 65.2188 35.875C64.4167 36.6771 63.5156 37.2344 62.5156 37.5469C61.4219 37.849 60.0521 38 58.4062 38H52.8906ZM56.5312 24.2344H57.6719C59.026 24.2344 60.0156 23.9375 60.6406 23.3438C61.276 22.7396 61.5938 21.8542 61.5938 20.6875C61.5938 19.5521 61.2708 18.6927 60.625 18.1094C59.9792 17.5156 59.0417 17.2188 57.8125 17.2188H56.5312V24.2344ZM56.5312 34.5781H58.7812C60.4271 34.5781 61.6354 34.2552 62.4062 33.6094C63.2188 32.9115 63.625 32.026 63.625 30.9531C63.625 29.9115 63.2344 29.0365 62.4531 28.3281C61.6927 27.6302 60.3333 27.2812 58.375 27.2812H56.5312V34.5781ZM65.5562 22.7812H69.0719V24.1406C69.7177 23.4635 70.2906 23 70.7906 22.75C71.301 22.4896 71.9052 22.3594 72.6031 22.3594C73.5302 22.3594 74.499 22.6615 75.5094 23.2656L73.9 26.4844C73.2333 26.0052 72.5823 25.7656 71.9469 25.7656C70.0302 25.7656 69.0719 27.2135 69.0719 30.1094V38H65.5562V22.7812ZM78.1281 35.1719L71.2844 22.7812H75.3625L80.0187 31.5312L84.3625 22.7812H88.3312L76.2062 46.2812H72.1906L78.1281 35.1719ZM95.7938 22.7812H99.325V38H95.7938V36.4062C94.3458 37.7604 92.7885 38.4375 91.1219 38.4375C89.0177 38.4375 87.2781 37.6771 85.9031 36.1562C84.5385 34.6042 83.8563 32.6667 83.8563 30.3438C83.8563 28.0625 84.5385 26.1615 85.9031 24.6406C87.2677 23.1198 88.976 22.3594 91.0281 22.3594C92.799 22.3594 94.3875 23.0885 95.7938 24.5469V22.7812ZM87.45 30.3438C87.45 31.8021 87.8406 32.9896 88.6219 33.9062C89.424 34.8333 90.4344 35.2969 91.6531 35.2969C92.9552 35.2969 94.0073 34.849 94.8094 33.9531C95.6115 33.026 96.0125 31.849 96.0125 30.4219C96.0125 28.9948 95.6115 27.8177 94.8094 26.8906C94.0073 25.9844 92.9656 25.5312 91.6844 25.5312C90.476 25.5312 89.4656 25.9896 88.6531 26.9062C87.851 27.8333 87.45 28.9792 87.45 30.3438ZM98.1625 22.7812H101.694V24.1875C102.923 22.9688 104.308 22.3594 105.85 22.3594C107.621 22.3594 109.001 22.9167 109.991 24.0312C110.845 24.9792 111.272 26.526 111.272 28.6719V38H107.741V29.5C107.741 28 107.532 26.9635 107.116 26.3906C106.709 25.8073 105.97 25.5156 104.897 25.5156C103.73 25.5156 102.902 25.901 102.412 26.6719C101.933 27.4323 101.694 28.7604 101.694 30.6562V38H98.1625V22.7812ZM114.228 38L119.306 12.0625L127.588 30.8125L136.166 12.0625L140.728 38H136.994L134.666 23.4375L127.525 39.1094L120.588 23.4219L117.994 38H114.228ZM151.425 23.4375V28.1094C150.623 27.1302 149.904 26.4583 149.269 26.0938C148.644 25.7188 147.909 25.5312 147.066 25.5312C145.743 25.5312 144.644 25.9948 143.769 26.9219C142.894 27.849 142.456 29.0104 142.456 30.4062C142.456 31.8333 142.878 33.0052 143.722 33.9219C144.576 34.8385 145.665 35.2969 146.988 35.2969C147.831 35.2969 148.576 35.1146 149.222 34.75C149.847 34.3958 150.581 33.7083 151.425 32.6875V37.3281C149.998 38.0677 148.571 38.4375 147.144 38.4375C144.79 38.4375 142.821 37.6771 141.238 36.1562C139.654 34.625 138.863 32.724 138.863 30.4531C138.863 28.1823 139.665 26.2656 141.269 24.7031C142.873 23.1406 144.842 22.3594 147.175 22.3594C148.675 22.3594 150.092 22.7188 151.425 23.4375ZM162.309 25.4375H172.278V26.2344C172.278 28.0469 172.065 29.651 171.637 31.0469C171.221 32.3385 170.518 33.5469 169.528 34.6719C167.289 37.1927 164.44 38.4531 160.981 38.4531C157.606 38.4531 154.716 37.2344 152.309 34.7969C149.903 32.349 148.7 29.4115 148.7 25.9844C148.7 22.4844 149.924 19.5156 152.372 17.0781C154.82 14.6302 157.799 13.4062 161.309 13.4062C163.195 13.4062 164.955 13.7917 166.591 14.5625C168.153 15.3333 169.69 16.5833 171.2 18.3125L168.606 20.7969C166.627 18.1615 164.216 16.8438 161.372 16.8438C158.82 16.8438 156.679 17.724 154.95 19.4844C153.221 21.2135 152.356 23.3802 152.356 25.9844C152.356 28.6719 153.32 30.8854 155.247 32.625C157.049 34.2396 159.002 35.0469 161.106 35.0469C162.898 35.0469 164.507 34.4427 165.934 33.2344C167.361 32.0156 168.158 30.5573 168.325 28.8594H162.309V25.4375ZM181.819 22.7812H185.35V38H181.819V36.4062C180.371 37.7604 178.814 38.4375 177.147 38.4375C175.043 38.4375 173.303 37.6771 171.928 36.1562C170.564 34.6042 169.881 32.6667 169.881 30.3438C169.881 28.0625 170.564 26.1615 171.928 24.6406C173.293 23.1198 175.001 22.3594 177.053 22.3594C178.824 22.3594 180.412 23.0885 181.819 24.5469V22.7812ZM173.475 30.3438C173.475 31.8021 173.866 32.9896 174.647 33.9062C175.449 34.8333 176.459 35.2969 177.678 35.2969C178.98 35.2969 180.032 34.849 180.834 33.9531C181.636 33.026 182.037 31.849 182.037 30.4219C182.037 28.9948 181.636 27.8177 180.834 26.8906C180.032 25.9844 178.991 25.5312 177.709 25.5312C176.501 25.5312 175.491 25.9896 174.678 26.9062C173.876 27.8333 173.475 28.9792 173.475 30.3438ZM184.188 11.6094H187.703V24.0469C188.953 22.9219 190.333 22.3594 191.844 22.3594C193.562 22.3594 194.938 22.9167 195.969 24.0312C196.844 25 197.281 26.5469 197.281 28.6719V38H193.766V29C193.766 27.7812 193.547 26.901 193.109 26.3594C192.682 25.8073 191.99 25.5312 191.031 25.5312C189.802 25.5312 188.938 25.9115 188.438 26.6719C187.948 27.4427 187.703 28.7656 187.703 30.6406V38H184.188V11.6094ZM207.369 22.7812H210.9V38H207.369V36.4062C205.921 37.7604 204.364 38.4375 202.697 38.4375C200.593 38.4375 198.853 37.6771 197.478 36.1562C196.114 34.6042 195.431 32.6667 195.431 30.3438C195.431 28.0625 196.114 26.1615 197.478 24.6406C198.843 23.1198 200.551 22.3594 202.603 22.3594C204.374 22.3594 205.962 23.0885 207.369 24.5469V22.7812ZM199.025 30.3438C199.025 31.8021 199.416 32.9896 200.197 33.9062C200.999 34.8333 202.009 35.2969 203.228 35.2969C204.53 35.2969 205.582 34.849 206.384 33.9531C207.186 33.026 207.587 31.849 207.587 30.4219C207.587 28.9948 207.186 27.8177 206.384 26.8906C205.582 25.9844 204.541 25.5312 203.259 25.5312C202.051 25.5312 201.041 25.9896 200.228 26.9062C199.426 27.8333 199.025 28.9792 199.025 30.3438ZM209.738 22.7812H213.269V24.1875C214.498 22.9688 215.883 22.3594 217.425 22.3594C219.196 22.3594 220.576 22.9167 221.566 24.0312C222.42 24.9792 222.847 26.526 222.847 28.6719V38H219.316V29.5C219.316 28 219.107 26.9635 218.691 26.3906C218.284 25.8073 217.545 25.5156 216.472 25.5156C215.305 25.5156 214.477 25.901 213.988 26.6719C213.508 27.4323 213.269 28.7604 213.269 30.6562V38H209.738V22.7812Z" fill="#242424"/>
<rect width="50" height="50" rx="25" fill="#242424"/>
<path d="M8.89062 37V12.875H12.5156C14.1302 12.875 15.4167 13 16.375 13.25C17.3438 13.5 18.1615 13.9219 18.8281 14.5156C19.5052 15.1302 20.0417 15.8958 20.4375 16.8125C20.8438 17.7396 21.0469 18.6771 21.0469 19.625C21.0469 21.3542 20.3854 22.8177 19.0625 24.0156C20.3438 24.4531 21.3542 25.2188 22.0938 26.3125C22.8438 27.3958 23.2188 28.6562 23.2188 30.0938C23.2188 31.9792 22.5521 33.5729 21.2188 34.875C20.4167 35.6771 19.5156 36.2344 18.5156 36.5469C17.4219 36.849 16.0521 37 14.4062 37H8.89062ZM12.5312 23.2344H13.6719C15.026 23.2344 16.0156 22.9375 16.6406 22.3438C17.276 21.7396 17.5938 20.8542 17.5938 19.6875C17.5938 18.5521 17.2708 17.6927 16.625 17.1094C15.9792 16.5156 15.0417 16.2188 13.8125 16.2188H12.5312V23.2344ZM12.5312 33.5781H14.7812C16.4271 33.5781 17.6354 33.2552 18.4062 32.6094C19.2188 31.9115 19.625 31.026 19.625 29.9531C19.625 28.9115 19.2344 28.0365 18.4531 27.3281C17.6927 26.6302 16.3333 26.2812 14.375 26.2812H12.5312V33.5781Z" fill="#F7F7F7"/>
<path d="M15.6244 37L20.7025 11.0625L28.9838 29.8125L37.5619 11.0625L42.1244 37H38.39L36.0619 22.4375L28.9213 38.1094L21.9838 22.4219L19.39 37H15.6244Z" fill="#06C8AB"/>
</svg>
